<?xml version="1.0" encoding="UTF-8" standalone="no"?>
<svg
   height="128"
   width="128"
   version="1.1"
   id="svg24"
   sodipodi:docname="boss_icon_2.svg"
   inkscape:version="1.1.2 (b8e25be833, 2022-02-05)"
   xmlns:inkscape="http://www.inkscape.org/namespaces/inkscape"
   xmlns:sodipodi="http://sodipodi.sourceforge.net/DTD/sodipodi-0.dtd"
   xmlns="http://www.w3.org/2000/svg"
   xmlns:svg="http://www.w3.org/2000/svg">
  <defs
     id="defs28" />
  <sodipodi:namedview
     id="namedview26"
     pagecolor="#ffffff"
     bordercolor="#666666"
     borderopacity="1.0"
     inkscape:pageshadow="2"
     inkscape:pageopacity="0.0"
     inkscape:pagecheckerboard="0"
     showgrid="false"
     inkscape:zoom="6.4296875"
     inkscape:cx="64.077764"
     inkscape:cy="59.411908"
     inkscape:window-width="1920"
     inkscape:window-height="1009"
     inkscape:window-x="-8"
     inkscape:window-y="-8"
     inkscape:window-maximized="1"
     inkscape:current-layer="svg24" />
  <rect
     x="2"
     y="2"
     width="124"
     height="124"
     rx="14"
     fill="#363d52"
     stroke="#212532"
     stroke-width="4"
     id="rect2" />
  <g
     transform="scale(.101) translate(122 122)"
     id="g22">
    <g
       fill="#fff"
       id="g14">
      <path
         d="M105 673v33q407 354 814 0v-33z"
         id="path4" />
      <path
         fill="#478cbf"
         d="m105 673 152 14q12 1 15 14l4 67 132 10 8-61q2-11 15-15h162q13 4 15 15l8 61 132-10 4-67q3-13 15-14l152-14V427q30-39 56-81-35-59-83-108-43 20-82 47-40-37-88-64 7-51 8-102-59-28-123-42-26 43-46 89-49-7-98 0-20-46-46-89-64 14-123 42 1 51 8 102-48 27-88 64-39-27-82-47-48 49-83 108 26 42 56 81zm0 33v39c0 276 813 276 813 0v-39l-134 12-5 69q-2 10-14 13l-162 11q-12 0-16-11l-10-65H447l-10 65q-4 11-16 11l-162-11q-12-3-14-13l-5-69z"
         id="path6" />
      <path
         d="M483 600c3 34 55 34 58 0v-86c-3-34-55-34-58 0z"
         id="path8" />
      <circle
         cx="725"
         cy="526"
         r="90"
         id="circle10" />
      <circle
         cx="299"
         cy="526"
         r="90"
         id="circle12" />
    </g>
    <g
       fill="#414042"
       id="g20">
      <circle
         cx="307"
         cy="532"
         r="60"
         id="circle16" />
      <circle
         cx="717"
         cy="532"
         r="60"
         id="circle18" />
    </g>
  </g>
  <path
     style="fill:#ff8080;stroke-width:0.155529"
     d="m 13.764277,123.72358 c -3.8607083,-0.77694 -6.9104787,-3.15952 -8.5612936,-6.68834 -1.1774645,-2.51698 -1.0814767,2.19419 -1.0814767,-53.079945 0,-49.033495 0.00352,-49.610886 0.3101481,-50.827136 C 5.6360126,8.3509864 9.480974,4.8905448 14.351407,4.200443 15.206811,4.079239 29.730711,4.043514 64.777643,4.0764076 c 47.225937,0.044324 49.265837,0.057805 50.235727,0.3319928 4.25341,1.202444 7.49201,4.5034237 8.55497,8.7197586 0.30663,1.216262 0.31015,1.793685 0.31015,50.871841 0,49.31974 -0.002,49.64959 -0.31461,50.87184 -1.19518,4.67342 -4.76323,8.00771 -9.48369,8.86237 -1.69723,0.30729 -98.787251,0.29701 -100.315913,-0.0106 z m 54.668287,-15.32252 c 10.428864,-0.56587 19.308467,-2.67785 25.878237,-6.15504 4.833406,-2.558177 8.419689,-6.111208 9.811639,-9.720657 0.98952,-2.565896 0.95378,-1.871467 1.04589,-20.322249 l 0.0841,-16.836983 1.02813,-1.359858 c 1.12599,-1.489284 4.53358,-6.538988 4.53358,-6.718292 0,-0.252387 -2.15493,-3.485177 -3.58159,-5.373036 -1.60545,-2.124456 -4.38666,-5.329745 -4.74335,-5.466618 -0.36971,-0.14187 -5.233546,2.470768 -7.680846,4.125813 l -0.686227,0.464077 -1.024587,-0.907929 c -1.521615,-1.348369 -4.274508,-3.369556 -6.148485,-4.514249 l -1.655004,-1.010936 0.08513,-0.622114 c 0.242606,-1.772973 0.547107,-5.24346 0.642015,-7.317208 l 0.107107,-2.340294 -1.296726,-0.592749 c -1.685329,-0.770384 -3.492877,-1.456144 -5.900783,-2.238675 -2.05608,-0.668194 -5.258643,-1.512593 -5.35736,-1.412541 -0.233742,0.236899 -2.839998,5.126328 -3.643163,6.834707 L 68.939469,29.02372 67.9084,28.887936 c -1.325251,-0.174528 -6.667136,-0.167504 -7.846411,0.01031 l -0.905257,0.136502 -1.140239,-2.378186 c -1.220159,-2.544872 -3.448822,-6.594145 -3.628262,-6.59221 -0.05979,6.22e-4 -0.933513,0.211542 -1.941603,0.468662 -2.64908,0.675664 -5.712246,1.712752 -8.283426,2.804496 l -2.243549,0.952629 0.08635,1.658088 c 0.08806,1.69089 0.454893,6.255682 0.626989,7.802045 l 0.09526,0.855989 -1.456444,0.901963 c -2.009038,1.24418 -3.973218,2.665498 -5.806963,4.202032 l -1.551005,1.299618 -1.481802,-0.956316 c -2.426208,-1.565804 -6.28149,-3.659877 -6.738004,-3.659877 -0.44323,0 -4.777451,5.199887 -6.546643,7.854192 -1.842991,2.765025 -1.942415,2.949328 -1.766059,3.273731 0.368791,0.678381 3.323772,5.020606 4.408671,6.478363 l 1.161486,1.560665 -0.01946,16.817497 c -0.02058,17.786582 -0.02584,17.635224 0.681266,19.623102 2.776275,7.804925 13.123209,13.518539 28.411062,15.688699 2.357969,0.33472 5.335876,0.60659 8.398542,0.76673 2.066685,0.10807 5.422716,0.0848 8.009721,-0.0556 z"
     id="path638" />
  <path
     style="fill:#800000;stroke-width:0.155529"
     d="m 59.334143,108.3122 c -0.384933,-0.0319 -1.679708,-0.13287 -2.877278,-0.2243 -4.190106,-0.31989 -9.375218,-1.21017 -13.212113,-2.26851 C 33.282781,103.07155 26.708961,98.648902 24.110204,92.946306 23.367815,91.317238 23.1225,89.828327 23.051911,86.523109 l -0.0604,-2.828045 0.713235,0.07528 c 0.392279,0.0414 3.397994,0.312757 6.679366,0.603006 3.281373,0.290249 5.999678,0.561271 6.040679,0.602272 0.041,0.041 0.181556,1.602171 0.312346,3.469268 0.130789,1.867096 0.31698,3.563395 0.413756,3.769554 0.434425,0.925434 0.321356,0.906278 8.807864,1.492208 9.358715,0.64615 9.46735,0.648584 10.006798,0.224255 0.500756,-0.393896 0.589674,-0.738809 1.130532,-4.385343 l 0.432528,-2.91616 h 6.494743 6.494744 l 0.08796,0.505467 c 0.04838,0.278008 0.282778,1.774077 0.520887,3.324599 0.461365,3.004314 0.664978,3.552284 1.390205,3.741361 0.619117,0.161412 17.124983,-0.964307 17.648343,-1.203637 0.792881,-0.362582 0.870058,-0.662782 1.144021,-4.449986 0.141278,-1.95297 0.274362,-3.571029 0.295744,-3.595687 0.07698,-0.08877 13.223948,-1.236907 13.346378,-1.165549 0.17599,0.102581 -0.0408,5.161975 -0.28274,6.597568 -0.22538,1.337462 -1.07392,3.28412 -2.10034,4.818416 -1.50029,2.242629 -4.976844,5.169904 -8.240494,6.938524 -5.24795,2.84395 -13.161325,5.00394 -21.229648,5.79474 -0.940947,0.0922 -1.955771,0.20299 -2.255164,0.24614 -0.678269,0.0978 -10.5545,0.21003 -11.509113,0.13084 z"
     id="path790" />
  <path
     style="fill:#800000;stroke-width:0.155529"
     d="m 46.489734,90.308741 -6.234446,-0.478968 -0.192355,-3.427644 c -0.106526,-1.898224 -0.274083,-3.594898 -0.375517,-3.80248 -0.43357,-0.887281 -0.422187,-0.885122 -8.659469,-1.64159 -4.234265,-0.388851 -7.797499,-0.706625 -7.918298,-0.706163 -0.188123,7.77e-4 -0.205852,-1.765287 -0.12357,-12.309145 l 0.09606,-12.309983 -1.14059,-1.57094 c -2.47553,-3.409559 -4.58112,-6.649699 -4.4903,-6.909798 0.04997,-0.143094 0.663233,-1.135019 1.362818,-2.204278 1.997621,-3.0532 6.377824,-8.398542 6.882126,-8.398542 0.531538,0 4.403489,2.085487 6.847649,3.68824 0.77324,0.50705 1.360015,0.79502 1.477522,0.725118 0.107203,-0.06377 0.902807,-0.695712 1.768013,-1.404313 1.802297,-1.476076 4.476681,-3.378758 6.008917,-4.275027 1.143325,-0.668777 1.119753,-0.612266 0.899174,-2.155646 C 42.49755,31.728758 42.253206,28.77158 42.138452,26.36209 l -0.09629,-2.021871 1.219501,-0.530221 c 3.136813,-1.363839 8.641469,-3.191389 10.555752,-3.504518 l 0.626654,-0.102505 0.874526,1.524272 c 0.913804,1.59273 3.036711,5.761319 3.454344,6.783031 l 0.242352,0.592902 1.5203,-0.120277 c 1.932717,-0.152903 5.135794,-0.154221 7.044866,-0.0029 l 1.480826,0.117378 0.516901,-1.212118 c 0.538415,-1.26257 2.977758,-5.93873 3.670032,-7.035364 0.219149,-0.347154 0.48506,-0.630552 0.590912,-0.629771 0.988689,0.0073 6.906479,1.888169 9.874113,3.13834 l 2.216282,0.933649 0.01842,0.568399 c 0.02297,0.70902 0.03301,0.389233 -0.08618,2.745799 -0.05624,1.11203 -0.137593,2.336817 -0.180774,2.72175 -0.494247,4.405806 -0.483253,4.193092 -0.228063,4.412589 0.133818,0.115103 0.838202,0.582792 1.565298,1.039311 1.74017,1.092591 4.63926,3.225453 5.93573,4.366921 0.57012,0.501957 1.107567,0.912649 1.194326,0.912649 0.08676,0 0.778335,-0.410951 1.536832,-0.913228 1.539219,-1.019265 5.048078,-2.966564 6.079388,-3.37386 l 0.67095,-0.264974 0.5467,0.526335 c 0.64316,0.619199 3.08935,3.515303 4.1867,4.956734 1.20586,1.583962 3.48972,5.021026 3.48972,5.251802 0,0.302636 -2.73191,4.385568 -4.7703,7.129376 l -0.81957,1.103194 -0.004,12.336834 c -0.002,6.785259 -0.023,12.355427 -0.0457,12.378152 -0.0227,0.02273 -3.52649,0.36446 -7.786146,0.759409 -4.259652,0.394948 -7.911865,0.781598 -8.116028,0.859221 -0.770462,0.292928 -0.868219,0.686442 -1.107601,4.45859 -0.12342,1.944828 -0.23934,3.545354 -0.257603,3.556723 -0.06601,0.0411 -13.084387,0.992123 -13.118193,0.958319 -0.01908,-0.01908 -0.217986,-1.425968 -0.442009,-3.126413 -0.224024,-1.700447 -0.510218,-3.290711 -0.635988,-3.533922 -0.479491,-0.927246 -0.34149,-0.914054 -9.562276,-0.914054 -9.322868,0 -9.064848,-0.02717 -9.535655,1.004102 -0.118872,0.260381 -0.370593,1.733201 -0.55938,3.272934 -0.414757,3.382733 -0.40634,3.349197 -0.834165,3.323379 -0.186701,-0.01126 -3.144958,-0.236019 -6.573904,-0.49945 z m 18.47749,-14.884237 c 0.698513,-0.193996 1.437232,-0.789539 1.798994,-1.450321 0.235819,-0.430736 0.266589,-1.052417 0.266589,-5.386091 0,-4.274539 -0.03293,-4.958636 -0.25829,-5.365735 -0.653739,-1.180942 -1.895561,-1.776853 -3.272501,-1.570368 -0.921891,0.138246 -1.658096,0.635345 -2.102192,1.419439 -0.341903,0.60366 -0.349731,0.725682 -0.348893,5.4389 7.78e-4,4.368712 0.02804,4.881239 0.290375,5.458886 0.582904,1.283516 2.080361,1.884533 3.625918,1.45529 z M 45.042186,74.248112 c 3.282873,-0.964782 5.739296,-3.651166 6.455444,-7.059777 0.831423,-3.957279 -1.263938,-8.166571 -4.944783,-9.933386 -2.651577,-1.272766 -5.307788,-1.283712 -7.987634,-0.03292 -5.401936,2.521306 -6.88454,9.706648 -2.947375,14.284251 1.213845,1.411294 3.423895,2.630265 5.414069,2.986172 1.038206,0.185665 2.94174,0.06969 4.010279,-0.244342 z m 43.241251,-0.05641 c 2.919586,-0.906613 5.36338,-3.48347 6.11961,-6.452816 0.30662,-1.203947 0.301587,-3.440071 -0.01047,-4.649613 -0.754233,-2.923481 -3.161569,-5.458116 -6.045907,-6.36561 -1.543947,-0.485768 -4.067998,-0.485768 -5.611946,0 -2.635861,0.829316 -4.877487,3.025566 -5.850015,5.731598 -0.462256,1.28621 -0.571953,3.831117 -0.223731,5.190364 0.422524,1.64927 1.148318,2.931075 2.347081,4.145116 1.498286,1.517377 3.025178,2.337729 5.055117,2.715959 1.025698,0.191114 3.085514,0.03737 4.220253,-0.314998 z"
     id="path829" />
  <path
     style="fill:#501616;stroke-width:0.155529"
     d="m 63.066829,108.20884 c -6.480984,-0.12322 -8.055068,-0.18776 -8.203691,-0.33639 -0.05014,-0.0501 -0.306961,-0.0916 -0.570712,-0.0922 -0.649572,-10e-4 -4.304765,-0.54904 -6.311867,-0.94572 -14.666966,-2.8987 -23.933791,-9.466377 -24.703035,-17.50777 -0.07236,-0.75646 -0.1511,-1.445371 -0.17497,-1.530911 -0.02387,-0.08554 -0.03511,-1.015358 -0.02498,-2.06626 l 0.01842,-1.910732 1.487534,0.08028 c 0.818144,0.04415 1.539298,0.112272 1.602564,0.151372 0.06326,0.0391 0.811129,0.114895 1.661919,0.168433 2.470366,0.155454 7.731937,0.681869 8.156853,0.816085 0.415355,0.131197 0.419425,0.156406 0.835034,5.171513 0.117705,1.420331 0.212452,1.965312 0.403857,2.322955 0.178793,0.334079 1.029167,0.618339 2.171384,0.725843 1.985893,0.186911 4.338912,0.375091 4.680814,0.374343 0.21187,-4.67e-4 0.910126,0.03804 1.551682,0.08555 5.839072,0.432488 7.120406,0.511376 8.485812,0.52245 1.347809,0.01093 1.609983,-0.02941 1.890695,-0.290935 0.344993,-0.32141 0.76035,-1.364795 0.605106,-1.520038 -0.05055,-0.05055 -0.02206,-0.176088 0.06332,-0.278964 0.08538,-0.102877 0.182802,-0.577168 0.216494,-1.053981 0.03369,-0.476814 0.103985,-0.936069 0.15621,-1.020569 0.05222,-0.0845 0.122916,-0.549404 0.157096,-1.033121 0.03418,-0.483718 0.103385,-0.920727 0.15379,-0.971133 0.0504,-0.05041 0.09165,-0.284221 0.09165,-0.51959 0,-0.979646 -0.427628,-0.91997 6.592381,-0.91997 h 6.403572 l 0.446121,2.837648 c 0.538316,3.424079 0.890038,4.588655 1.426516,4.723303 0.35473,0.08903 2.661705,0.019 5.427886,-0.164761 0.684326,-0.04546 1.769137,-0.115799 2.410693,-0.156305 2.226938,-0.140605 3.221063,-0.211474 6.37667,-0.454577 3.225484,-0.248487 3.518325,-0.289858 3.880949,-0.548273 0.401028,-0.285783 0.78679,-1.416952 0.774498,-2.271057 -0.01392,-0.967602 0.449546,-5.400137 0.577123,-5.51949 0.141483,-0.132363 5.671752,-0.686952 8.523923,-0.8548 0.93666,-0.05512 1.75561,-0.132719 1.81987,-0.172437 0.0643,-0.03972 0.71113,-0.09992 1.43747,-0.133781 l 1.32062,-0.06157 0.0478,1.869887 c 0.0263,1.028438 0.006,1.895522 -0.045,1.926854 -0.051,0.03133 -0.13596,0.713545 -0.18867,1.51603 -0.18667,2.841848 -1.59239,5.654027 -4.06349,8.129137 -1.593084,1.595669 -4.084534,3.508542 -5.786063,4.442392 -0.629627,0.34556 -1.144776,0.69609 -1.144776,0.77894 0,0.0829 -0.06999,0.1074 -0.155529,0.0545 -0.08554,-0.0529 -0.155528,-0.0179 -0.155528,0.0778 0,0.0956 -0.06198,0.13558 -0.137725,0.0888 -0.07575,-0.0468 -0.723138,0.18533 -1.43864,0.51587 -2.866512,1.32424 -8.324482,2.95367 -12.343441,3.68502 -0.855407,0.15566 -1.590279,0.32149 -1.63305,0.36849 -0.04277,0.047 -0.322721,0.0949 -0.622114,0.10633 -0.299392,0.0115 -1.777037,0.16894 -3.283652,0.34994 -1.506616,0.181 -3.162996,0.32909 -3.680842,0.32909 -0.517848,0 -0.96487,0.0525 -0.993384,0.11664 -0.02851,0.0642 -2.816362,0.0641 -6.19522,-1.5e-4 z"
     id="path1378" />
  <path
     style="fill:#333333;stroke-width:0.155529"
     d="m 41.648375,71.793156 c -1.616904,-0.527695 -3.022232,-1.776141 -3.752224,-3.333352 -0.361579,-0.771315 -0.413769,-1.078822 -0.413769,-2.437933 0,-1.354287 0.05246,-1.665834 0.40594,-2.410692 0.838749,-1.767429 2.448129,-3.023817 4.377058,-3.417019 1.235619,-0.251874 2.432182,-0.06996 3.694844,0.561721 4.472837,2.237669 4.384443,8.532011 -0.150005,10.681533 -0.811249,0.384567 -1.243978,0.484876 -2.255164,0.522758 -0.766667,0.02872 -1.50512,-0.03596 -1.90668,-0.167016 z"
     id="path1587" />
  <path
     style="fill:#0000ff;stroke-width:0.155529"
     d="m 82.865588,71.72011 c -1.563858,-0.540361 -2.805362,-1.677267 -3.583679,-3.281749 -0.361663,-0.745559 -0.418511,-1.059611 -0.423347,-2.338726 -0.0051,-1.344424 0.03905,-1.571736 0.489875,-2.523414 1.763353,-3.722357 6.390877,-4.652148 9.380054,-1.884698 2.398489,2.220578 2.638794,5.574798 0.586252,8.18302 -1.399995,1.779013 -4.267157,2.599514 -6.449155,1.845567 z"
     id="path1626" />
  <path
     style="fill:#4d4d4d;stroke-width:0.155529"
     d="m 51.4694,90.646 c -0.21511,-0.0577 -1.175582,-0.149308 -2.134385,-0.203567 -0.958802,-0.05426 -2.163205,-0.131176 -2.676449,-0.170928 -0.513244,-0.03975 -1.423086,-0.106597 -2.021871,-0.148546 -2.128172,-0.14909 -4.147724,-0.357358 -4.226196,-0.43583 -0.071,-0.071 -0.16775,-1.224939 -0.425873,-5.079596 -0.08928,-1.333284 -0.197412,-1.949516 -0.412659,-2.351706 -0.154855,-0.28935 -0.933195,-0.559544 -1.969189,-0.683589 -1.949971,-0.233478 -4.972109,-0.55049 -6.108246,-0.640735 -0.727096,-0.05775 -1.689306,-0.137161 -2.138245,-0.176459 -0.448938,-0.0393 -1.183811,-0.100922 -1.633049,-0.136941 -0.449239,-0.03602 -1.674149,-0.144895 -2.722023,-0.241946 L 23.09599,80.1997 23.071708,79.098634 c -0.01336,-0.605584 -0.0044,-6.144653 0.01996,-12.309041 l 0.04424,-11.207976 -1.39021,-1.934187 c -1.778941,-2.475022 -3.140039,-4.502981 -3.758132,-5.5994 l -0.488027,-0.865698 0.856292,-1.36383 c 2.165675,-3.449304 6.7673,-9.113763 7.403729,-9.113763 0.524631,0 3.712174,1.69867 6.816519,3.632582 0.637621,0.39722 1.232518,0.721945 1.321994,0.721612 0.08947,-3.11e-4 0.827564,-0.533726 1.640201,-1.18532 2.163442,-1.734708 3.583486,-2.769454 5.576439,-4.063394 L 42.8889,34.658315 42.780017,33.316391 c -0.05989,-0.738059 -0.147165,-1.403866 -0.193955,-1.479573 -0.09211,-0.149044 -0.171173,-1.365259 -0.181584,-2.793429 -0.0036,-0.492722 -0.04653,-0.960588 -0.09543,-1.039701 -0.0489,-0.07911 -0.106069,-0.929001 -0.127053,-1.888639 l -0.03815,-1.744796 0.740959,-0.307928 c 0.407525,-0.169361 0.740956,-0.372715 0.740956,-0.451899 0,-0.07918 0.06117,-0.106167 0.135932,-0.05996 0.07476,0.04621 0.582175,-0.09981 1.127582,-0.324485 1.264972,-0.521088 6.796556,-2.385153 7.077903,-2.385153 0.116959,0 0.212654,-0.06343 0.212654,-0.140968 0,-0.07753 0.139976,-0.104363 0.311057,-0.05963 0.171081,0.04474 0.311301,0.02069 0.311601,-0.05344 3.12e-4,-0.07413 0.373109,-0.154785 0.828465,-0.179229 l 0.827919,-0.04444 1.187434,2.144079 c 0.65309,1.179243 1.677211,3.160529 2.275826,4.402859 l 1.088394,2.25878 1.678212,-0.12927 c 0.923017,-0.0711 3.191625,-0.08888 5.041351,-0.03952 l 3.363138,0.08975 1.116663,-2.297025 c 1.557259,-3.203347 3.263213,-6.26734 3.550983,-6.377767 0.133104,-0.05108 0.668396,-0.0064 1.189535,0.09937 1.359394,0.275803 7.009838,2.184549 9.112775,3.078338 l 1.788579,0.760181 -0.0498,2.17106 c -0.02739,1.194084 -0.179997,3.455293 -0.339129,5.024909 -0.159132,1.569617 -0.257409,2.93438 -0.218394,3.032807 0.03901,0.09843 0.714605,0.598886 1.501309,1.11213 1.920344,1.252828 4.705804,3.288592 6.064394,4.432186 0.60998,0.513453 1.205395,0.933549 1.323142,0.933549 0.117748,0 1.250409,-0.626982 2.517025,-1.393293 1.266616,-0.766311 3.063089,-1.779592 3.99216,-2.251735 l 1.68923,-0.858441 0.60166,0.579803 c 0.80318,0.773997 3.38707,3.853058 4.53257,5.401188 1.36221,1.841 3.03711,4.457832 3.03711,4.745123 0,0.257697 -2.95358,4.720663 -4.55758,6.886661 l -0.89706,1.211373 -0.009,9.053512 c -0.005,4.979433 -0.0445,10.534415 -0.0877,12.344407 -0.0881,3.69052 -0.004,3.467518 -1.30476,3.472475 -0.30653,0.0012 -0.60625,0.05106 -0.66606,0.110868 -0.0598,0.05981 -0.41971,0.08962 -0.79979,0.06625 -0.38007,-0.02337 -0.77001,0.0063 -0.86653,0.06597 -0.15263,0.09433 -0.93277,0.174075 -2.123331,0.21704 -0.190938,0.0069 -1.695677,0.151633 -3.343864,0.321649 -1.648187,0.170016 -3.346645,0.340298 -3.774348,0.378402 -3.145236,0.280214 -3.29409,0.316429 -3.580982,0.871213 -0.216228,0.418139 -0.524907,2.699488 -0.556663,4.114112 -0.0077,0.342163 -0.02469,1.147023 -0.0378,1.788578 -0.01311,0.641555 -0.09778,1.245415 -0.18817,1.341913 -0.216365,0.230991 -0.91468,0.377063 -2.120084,0.443476 -0.539922,0.02975 -1.471591,0.09179 -2.070376,0.137866 -1.170505,0.09008 -2.55164,0.190251 -4.043742,0.293293 -0.513244,0.03544 -1.80802,0.09362 -2.877278,0.129294 l -1.944107,0.06485 -0.04557,-0.466586 c -0.02506,-0.256622 -0.08796,-0.571567 -0.139771,-0.699878 -0.05181,-0.128311 -0.08396,-0.373269 -0.07144,-0.54435 0.01252,-0.171082 -0.0817,-0.940948 -0.209385,-1.710814 -0.12768,-0.769867 -0.272228,-1.675794 -0.321216,-2.013173 -0.169351,-1.166259 -0.45101,-1.607248 -1.146089,-1.794414 -0.751182,-0.202271 -17.35238,-0.157404 -17.767689,0.04802 -0.143049,0.07076 -0.363145,0.386209 -0.4891,0.701002 -0.272436,0.680883 -0.632034,2.914662 -0.502856,3.123677 0.04986,0.08068 0.01953,0.190647 -0.06741,0.244376 -0.08694,0.05373 -0.158065,0.265669 -0.158065,0.470979 0,0.205309 -0.07757,0.894814 -0.172371,1.532232 l -0.172372,1.158943 -0.764931,0.05276 c -0.420714,0.02902 -0.940933,0.0056 -1.156041,-0.05215 z M 65.822547,75.072877 c 1.220103,-0.845532 1.21026,-0.792693 1.21026,-6.496143 v -5.066036 l -0.417442,-0.630796 c -0.749436,-1.132475 -2.57368,-1.637106 -3.905901,-1.080469 -0.570903,0.238539 -1.562245,1.288675 -1.425459,1.51 0.0497,0.08042 0.01625,0.146217 -0.07434,0.146217 -0.265899,0 -0.223272,9.823655 0.04542,10.46672 0.257208,0.615587 1.299004,1.55997 1.595407,1.446229 0.118986,-0.04566 0.216339,-0.01019 0.216339,0.07883 0,0.10254 0.39594,0.139072 1.080525,0.0997 0.850957,-0.04894 1.206867,-0.149699 1.675193,-0.47425 z M 45.45322,74.181 c 0.534629,-0.183421 0.972053,-0.401186 0.972053,-0.483922 0,-0.08274 0.06999,-0.107175 0.155529,-0.05431 0.08554,0.05287 0.155528,0.01787 0.155528,-0.07776 0,-0.09564 0.06744,-0.132209 0.149857,-0.08127 0.08242,0.05094 0.28655,-0.04408 0.453624,-0.211153 0.167073,-0.167074 0.341069,-0.26647 0.386658,-0.220882 0.131362,0.131363 2.449114,-2.287396 2.348254,-2.45059 -0.04986,-0.08067 -0.03162,-0.146676 0.04052,-0.146676 0.186941,0 0.676634,-0.869521 0.557042,-0.989112 -0.05477,-0.05477 -0.01381,-0.09959 0.09104,-0.09959 0.104847,0 0.147374,-0.06999 0.09451,-0.155528 -0.05287,-0.08554 -0.03308,-0.155529 0.04397,-0.155529 0.145744,0 0.453276,-0.894104 0.604093,-1.756317 0.195266,-1.116323 0.179757,-3.033025 -0.03203,-3.958315 -0.733114,-3.202969 -3.417663,-5.935147 -6.687014,-6.805659 -0.953849,-0.253977 -3.653027,-0.345382 -3.99307,-0.135225 -0.103221,0.0638 -0.33061,0.131735 -0.505311,0.150978 -0.709872,0.0782 -2.133926,0.738089 -3.183605,1.475249 -1.7573,1.234104 -3.000407,3.127854 -3.517874,5.359129 -0.318383,1.372835 -0.207261,3.902161 0.224645,5.113382 1.049244,2.942451 3.352695,5.024258 6.54802,5.917951 1.195042,0.334239 3.782538,0.214936 5.093561,-0.234851 z m 42.975981,0.01845 c 2.107804,-0.6574 4.391772,-2.676183 5.378554,-4.754064 0.295724,-0.622709 0.555651,-1.300767 0.577618,-1.506794 0.02196,-0.206027 0.09086,-0.456997 0.153108,-0.55771 0.19316,-0.31254 0.07727,-3.638568 -0.158294,-4.542956 -0.253771,-0.974293 -1.21192,-2.781271 -1.541915,-2.907902 -0.120576,-0.04627 -0.185993,-0.137909 -0.145367,-0.203641 0.104348,-0.16884 -1.401372,-1.546848 -2.343371,-2.14461 -1.465595,-0.93002 -2.398146,-1.167733 -4.653301,-1.186157 -1.981376,-0.01619 -3.499392,0.225533 -3.499392,0.557225 0,0.07947 -0.07208,0.09994 -0.160179,0.0455 -0.420336,-0.259781 -2.840466,1.588427 -3.834443,2.928293 -0.774657,1.044225 -1.508394,2.529249 -1.36462,2.761879 0.0493,0.07976 0.01629,0.145023 -0.07334,0.145023 -0.08963,0 -0.169408,0.157473 -0.177283,0.349939 -0.0079,0.192467 -0.04805,1.139245 -0.08929,2.103953 -0.122564,2.867511 0.558912,4.575409 2.648687,6.638074 1.341014,1.323616 2.559572,2.057716 4.139161,2.493567 1.165809,0.321679 3.763775,0.210754 5.14366,-0.219617 z"
     id="path1665" />
  <path
     style="fill:#333333;stroke-width:0.155529"
     d="m 66.566221,108.24574 c -0.342163,-0.0745 -2.301822,-0.14279 -4.354799,-0.15174 -6.737284,-0.0294 -11.457004,-0.58643 -17.334199,-2.04591 C 32.473307,102.96784 24.766007,97.228423 23.476847,90.111812 23.33908,89.351287 23.187399,87.63608 23.139778,86.30024 l -0.08658,-2.428801 0.837923,0.05979 c 0.460857,0.03289 1.537801,0.127178 2.393208,0.20954 0.855407,0.08236 2.465127,0.224177 3.577156,0.315145 3.722341,0.3045 6.203431,0.61925 6.315903,0.801234 0.152697,0.247068 0.254247,1.028962 0.524829,4.040973 0.128016,1.425024 0.302988,2.775675 0.388826,3.001447 0.318831,0.83859 1.181625,0.994507 8.245534,1.490065 5.307013,0.372306 9.742695,0.547381 10.303335,0.40667 0.568891,-0.142783 0.863128,-0.702951 1.132354,-2.155783 0.131439,-0.709285 0.303461,-1.639549 0.382271,-2.067252 0.07881,-0.427704 0.189477,-1.248082 0.245928,-1.823064 0.06016,-0.612804 0.195981,-1.122891 0.328207,-1.232629 0.164182,-0.136259 1.911379,-0.206553 6.419904,-0.258289 l 6.194334,-0.07108 0.0917,0.448302 c 0.05044,0.246567 0.267568,1.49812 0.482518,2.781231 0.427645,2.552778 0.618372,3.344607 0.970265,4.028156 l 0.232176,0.451 2.900119,-0.09309 c 5.276132,-0.169364 14.73194,-0.912634 15.269337,-1.200241 0.530991,-0.284177 0.887693,-1.331487 1.005601,-2.952528 0.131628,-1.809689 0.486222,-4.814463 0.579118,-4.90736 0.09145,-0.09144 3.737168,-0.480887 7.275711,-0.777204 5.262645,-0.440694 5.461145,-0.448104 5.612195,-0.209532 0.19305,0.304888 0.1779,2.418052 -0.0306,4.261046 -0.43728,3.866195 -1.52984,6.1439 -4.255,8.870549 -1.780502,1.781477 -5.278526,4.378385 -7.003437,5.199295 -2.197751,1.04595 -6.657473,2.60579 -9.720535,3.39987 -4.48285,1.16215 -6.295315,1.44965 -13.842041,2.19565 -0.898177,0.0888 -1.878007,0.19212 -2.1774,0.22964 -0.299392,0.0375 -0.824301,0.007 -1.166464,-0.0673 z"
     id="path1741" />
</svg>
