<?xml version="1.0" encoding="UTF-8" standalone="no"?>
<svg
   height="128"
   width="128"
   version="1.1"
   id="svg24"
   sodipodi:docname="enemy_icon_2.svg"
   inkscape:version="1.1.2 (b8e25be833, 2022-02-05)"
   xmlns:inkscape="http://www.inkscape.org/namespaces/inkscape"
   xmlns:sodipodi="http://sodipodi.sourceforge.net/DTD/sodipodi-0.dtd"
   xmlns="http://www.w3.org/2000/svg"
   xmlns:svg="http://www.w3.org/2000/svg">
  <defs
     id="defs28" />
  <sodipodi:namedview
     id="namedview26"
     pagecolor="#ffffff"
     bordercolor="#666666"
     borderopacity="1.0"
     inkscape:pageshadow="2"
     inkscape:pageopacity="0.0"
     inkscape:pagecheckerboard="0"
     showgrid="false"
     inkscape:zoom="6.4296875"
     inkscape:cx="64.077764"
     inkscape:cy="59.100851"
     inkscape:window-width="1920"
     inkscape:window-height="1009"
     inkscape:window-x="-8"
     inkscape:window-y="-8"
     inkscape:window-maximized="1"
     inkscape:current-layer="svg24" />
  <rect
     x="2"
     y="2"
     width="124"
     height="124"
     rx="14"
     fill="#363d52"
     stroke="#212532"
     stroke-width="4"
     id="rect2" />
  <g
     transform="scale(.101) translate(122 122)"
     id="g22">
    <g
       fill="#fff"
       id="g14">
      <path
         d="M105 673v33q407 354 814 0v-33z"
         id="path4" />
      <path
         fill="#478cbf"
         d="m105 673 152 14q12 1 15 14l4 67 132 10 8-61q2-11 15-15h162q13 4 15 15l8 61 132-10 4-67q3-13 15-14l152-14V427q30-39 56-81-35-59-83-108-43 20-82 47-40-37-88-64 7-51 8-102-59-28-123-42-26 43-46 89-49-7-98 0-20-46-46-89-64 14-123 42 1 51 8 102-48 27-88 64-39-27-82-47-48 49-83 108 26 42 56 81zm0 33v39c0 276 813 276 813 0v-39l-134 12-5 69q-2 10-14 13l-162 11q-12 0-16-11l-10-65H447l-10 65q-4 11-16 11l-162-11q-12-3-14-13l-5-69z"
         id="path6" />
      <path
         d="M483 600c3 34 55 34 58 0v-86c-3-34-55-34-58 0z"
         id="path8" />
      <circle
         cx="725"
         cy="526"
         r="90"
         id="circle10" />
      <circle
         cx="299"
         cy="526"
         r="90"
         id="circle12" />
    </g>
    <g
       fill="#414042"
       id="g20">
      <circle
         cx="307"
         cy="532"
         r="60"
         id="circle16" />
      <circle
         cx="717"
         cy="532"
         r="60"
         id="circle18" />
    </g>
  </g>
  <path
     style="fill:#ff8080;stroke-width:0.155529"
     d="m 13.764277,123.72358 c -3.8607083,-0.77694 -6.9104787,-3.15952 -8.5612936,-6.68834 -1.1774645,-2.51698 -1.0814767,2.19419 -1.0814767,-53.079945 0,-49.033495 0.00352,-49.610886 0.3101481,-50.827136 C 5.6360126,8.3509864 9.480974,4.8905448 14.351407,4.200443 15.206811,4.079239 29.730711,4.043514 64.777643,4.0764076 c 47.225937,0.044324 49.265837,0.057805 50.235727,0.3319928 4.25341,1.202444 7.49201,4.5034237 8.55497,8.7197586 0.30663,1.216262 0.31015,1.793685 0.31015,50.871841 0,49.31974 -0.002,49.64959 -0.31461,50.87184 -1.19518,4.67342 -4.76323,8.00771 -9.48369,8.86237 -1.69723,0.30729 -98.787251,0.29701 -100.315913,-0.0106 z m 54.668287,-15.32252 c 10.428864,-0.56587 19.308467,-2.67785 25.878237,-6.15504 4.833406,-2.558177 8.419689,-6.111208 9.811639,-9.720657 0.98952,-2.565896 0.95378,-1.871467 1.04589,-20.322249 l 0.0841,-16.836983 1.02813,-1.359858 c 1.12599,-1.489284 4.53358,-6.538988 4.53358,-6.718292 0,-0.252387 -2.15493,-3.485177 -3.58159,-5.373036 -1.60545,-2.124456 -4.38666,-5.329745 -4.74335,-5.466618 -0.36971,-0.14187 -5.233546,2.470768 -7.680846,4.125813 l -0.686227,0.464077 -1.024587,-0.907929 c -1.521615,-1.348369 -4.274508,-3.369556 -6.148485,-4.514249 l -1.655004,-1.010936 0.08513,-0.622114 c 0.242606,-1.772973 0.547107,-5.24346 0.642015,-7.317208 l 0.107107,-2.340294 -1.296726,-0.592749 c -1.685329,-0.770384 -3.492877,-1.456144 -5.900783,-2.238675 -2.05608,-0.668194 -5.258643,-1.512593 -5.35736,-1.412541 -0.233742,0.236899 -2.839998,5.126328 -3.643163,6.834707 L 68.939469,29.02372 67.9084,28.887936 c -1.325251,-0.174528 -6.667136,-0.167504 -7.846411,0.01031 l -0.905257,0.136502 -1.140239,-2.378186 c -1.220159,-2.544872 -3.448822,-6.594145 -3.628262,-6.59221 -0.05979,6.22e-4 -0.933513,0.211542 -1.941603,0.468662 -2.64908,0.675664 -5.712246,1.712752 -8.283426,2.804496 l -2.243549,0.952629 0.08635,1.658088 c 0.08806,1.69089 0.454893,6.255682 0.626989,7.802045 l 0.09526,0.855989 -1.456444,0.901963 c -2.009038,1.24418 -3.973218,2.665498 -5.806963,4.202032 l -1.551005,1.299618 -1.481802,-0.956316 c -2.426208,-1.565804 -6.28149,-3.659877 -6.738004,-3.659877 -0.44323,0 -4.777451,5.199887 -6.546643,7.854192 -1.842991,2.765025 -1.942415,2.949328 -1.766059,3.273731 0.368791,0.678381 3.323772,5.020606 4.408671,6.478363 l 1.161486,1.560665 -0.01946,16.817497 c -0.02058,17.786582 -0.02584,17.635224 0.681266,19.623102 2.776275,7.804925 13.123209,13.518539 28.411062,15.688699 2.357969,0.33472 5.335876,0.60659 8.398542,0.76673 2.066685,0.10807 5.422716,0.0848 8.009721,-0.0556 z"
     id="path638" />
  <path
     style="fill:#800000;stroke-width:0.155529"
     d="m 59.334143,108.3122 c -0.384933,-0.0319 -1.679708,-0.13287 -2.877278,-0.2243 -4.190106,-0.31989 -9.375218,-1.21017 -13.212113,-2.26851 C 33.282781,103.07155 26.708961,98.648902 24.110204,92.946306 23.367815,91.317238 23.1225,89.828327 23.051911,86.523109 l -0.0604,-2.828045 0.713235,0.07528 c 0.392279,0.0414 3.397994,0.312757 6.679366,0.603006 3.281373,0.290249 5.999678,0.561271 6.040679,0.602272 0.041,0.041 0.181556,1.602171 0.312346,3.469268 0.130789,1.867096 0.31698,3.563395 0.413756,3.769554 0.434425,0.925434 0.321356,0.906278 8.807864,1.492208 9.358715,0.64615 9.46735,0.648584 10.006798,0.224255 0.500756,-0.393896 0.589674,-0.738809 1.130532,-4.385343 l 0.432528,-2.91616 h 6.494743 6.494744 l 0.08796,0.505467 c 0.04838,0.278008 0.282778,1.774077 0.520887,3.324599 0.461365,3.004314 0.664978,3.552284 1.390205,3.741361 0.619117,0.161412 17.124983,-0.964307 17.648343,-1.203637 0.792881,-0.362582 0.870058,-0.662782 1.144021,-4.449986 0.141278,-1.95297 0.274362,-3.571029 0.295744,-3.595687 0.07698,-0.08877 13.223948,-1.236907 13.346378,-1.165549 0.17599,0.102581 -0.0408,5.161975 -0.28274,6.597568 -0.22538,1.337462 -1.07392,3.28412 -2.10034,4.818416 -1.50029,2.242629 -4.976844,5.169904 -8.240494,6.938524 -5.24795,2.84395 -13.161325,5.00394 -21.229648,5.79474 -0.940947,0.0922 -1.955771,0.20299 -2.255164,0.24614 -0.678269,0.0978 -10.5545,0.21003 -11.509113,0.13084 z"
     id="path790" />
  <path
     style="fill:#800000;stroke-width:0.155529"
     d="m 46.489734,90.308741 -6.234446,-0.478968 -0.192355,-3.427644 c -0.106526,-1.898224 -0.274083,-3.594898 -0.375517,-3.80248 -0.43357,-0.887281 -0.422187,-0.885122 -8.659469,-1.64159 -4.234265,-0.388851 -7.797499,-0.706625 -7.918298,-0.706163 -0.188123,7.77e-4 -0.205852,-1.765287 -0.12357,-12.309145 l 0.09606,-12.309983 -1.14059,-1.57094 c -2.47553,-3.409559 -4.58112,-6.649699 -4.4903,-6.909798 0.04997,-0.143094 0.663233,-1.135019 1.362818,-2.204278 1.997621,-3.0532 6.377824,-8.398542 6.882126,-8.398542 0.531538,0 4.403489,2.085487 6.847649,3.68824 0.77324,0.50705 1.360015,0.79502 1.477522,0.725118 0.107203,-0.06377 0.902807,-0.695712 1.768013,-1.404313 1.802297,-1.476076 4.476681,-3.378758 6.008917,-4.275027 1.143325,-0.668777 1.119753,-0.612266 0.899174,-2.155646 C 42.49755,31.728758 42.253206,28.77158 42.138452,26.36209 l -0.09629,-2.021871 1.219501,-0.530221 c 3.136813,-1.363839 8.641469,-3.191389 10.555752,-3.504518 l 0.626654,-0.102505 0.874526,1.524272 c 0.913804,1.59273 3.036711,5.761319 3.454344,6.783031 l 0.242352,0.592902 1.5203,-0.120277 c 1.932717,-0.152903 5.135794,-0.154221 7.044866,-0.0029 l 1.480826,0.117378 0.516901,-1.212118 c 0.538415,-1.26257 2.977758,-5.93873 3.670032,-7.035364 0.219149,-0.347154 0.48506,-0.630552 0.590912,-0.629771 0.988689,0.0073 6.906479,1.888169 9.874113,3.13834 l 2.216282,0.933649 0.01842,0.568399 c 0.02297,0.70902 0.03301,0.389233 -0.08618,2.745799 -0.05624,1.11203 -0.137593,2.336817 -0.180774,2.72175 -0.494247,4.405806 -0.483253,4.193092 -0.228063,4.412589 0.133818,0.115103 0.838202,0.582792 1.565298,1.039311 1.74017,1.092591 4.63926,3.225453 5.93573,4.366921 0.57012,0.501957 1.107567,0.912649 1.194326,0.912649 0.08676,0 0.778335,-0.410951 1.536832,-0.913228 1.539219,-1.019265 5.048078,-2.966564 6.079388,-3.37386 l 0.67095,-0.264974 0.5467,0.526335 c 0.64316,0.619199 3.08935,3.515303 4.1867,4.956734 1.20586,1.583962 3.48972,5.021026 3.48972,5.251802 0,0.302636 -2.73191,4.385568 -4.7703,7.129376 l -0.81957,1.103194 -0.004,12.336834 c -0.002,6.785259 -0.023,12.355427 -0.0457,12.378152 -0.0227,0.02273 -3.52649,0.36446 -7.786146,0.759409 -4.259652,0.394948 -7.911865,0.781598 -8.116028,0.859221 -0.770462,0.292928 -0.868219,0.686442 -1.107601,4.45859 -0.12342,1.944828 -0.23934,3.545354 -0.257603,3.556723 -0.06601,0.0411 -13.084387,0.992123 -13.118193,0.958319 -0.01908,-0.01908 -0.217986,-1.425968 -0.442009,-3.126413 -0.224024,-1.700447 -0.510218,-3.290711 -0.635988,-3.533922 -0.479491,-0.927246 -0.34149,-0.914054 -9.562276,-0.914054 -9.322868,0 -9.064848,-0.02717 -9.535655,1.004102 -0.118872,0.260381 -0.370593,1.733201 -0.55938,3.272934 -0.414757,3.382733 -0.40634,3.349197 -0.834165,3.323379 -0.186701,-0.01126 -3.144958,-0.236019 -6.573904,-0.49945 z m 18.47749,-14.884237 c 0.698513,-0.193996 1.437232,-0.789539 1.798994,-1.450321 0.235819,-0.430736 0.266589,-1.052417 0.266589,-5.386091 0,-4.274539 -0.03293,-4.958636 -0.25829,-5.365735 -0.653739,-1.180942 -1.895561,-1.776853 -3.272501,-1.570368 -0.921891,0.138246 -1.658096,0.635345 -2.102192,1.419439 -0.341903,0.60366 -0.349731,0.725682 -0.348893,5.4389 7.78e-4,4.368712 0.02804,4.881239 0.290375,5.458886 0.582904,1.283516 2.080361,1.884533 3.625918,1.45529 z M 45.042186,74.248112 c 3.282873,-0.964782 5.739296,-3.651166 6.455444,-7.059777 0.831423,-3.957279 -1.263938,-8.166571 -4.944783,-9.933386 -2.651577,-1.272766 -5.307788,-1.283712 -7.987634,-0.03292 -5.401936,2.521306 -6.88454,9.706648 -2.947375,14.284251 1.213845,1.411294 3.423895,2.630265 5.414069,2.986172 1.038206,0.185665 2.94174,0.06969 4.010279,-0.244342 z m 43.241251,-0.05641 c 2.919586,-0.906613 5.36338,-3.48347 6.11961,-6.452816 0.30662,-1.203947 0.301587,-3.440071 -0.01047,-4.649613 -0.754233,-2.923481 -3.161569,-5.458116 -6.045907,-6.36561 -1.543947,-0.485768 -4.067998,-0.485768 -5.611946,0 -2.635861,0.829316 -4.877487,3.025566 -5.850015,5.731598 -0.462256,1.28621 -0.571953,3.831117 -0.223731,5.190364 0.422524,1.64927 1.148318,2.931075 2.347081,4.145116 1.498286,1.517377 3.025178,2.337729 5.055117,2.715959 1.025698,0.191114 3.085514,0.03737 4.220253,-0.314998 z"
     id="path829" />
  <path
     style="fill:#800080;stroke-width:0.155529"
     d="m 41.648375,71.793156 c -1.616904,-0.527695 -3.022232,-1.776141 -3.752224,-3.333352 -0.361579,-0.771315 -0.413769,-1.078822 -0.413769,-2.437933 0,-1.354287 0.05246,-1.665834 0.40594,-2.410692 0.838749,-1.767429 2.448129,-3.023817 4.377058,-3.417019 1.235619,-0.251874 2.432182,-0.06996 3.694844,0.561721 4.472837,2.237669 4.384443,8.532011 -0.150005,10.681533 -0.811249,0.384567 -1.243978,0.484876 -2.255164,0.522758 -0.766667,0.02872 -1.50512,-0.03596 -1.90668,-0.167016 z"
     id="path819" />
  <path
     style="fill:#800080;stroke-width:0.155529"
     d="m 82.865588,71.72011 c -1.563858,-0.540361 -2.805362,-1.677267 -3.583679,-3.281749 -0.361663,-0.745559 -0.418511,-1.059611 -0.423347,-2.338726 -0.0051,-1.344424 0.03905,-1.571736 0.489875,-2.523414 1.763353,-3.722357 6.390877,-4.652148 9.380054,-1.884698 2.398489,2.220578 2.638794,5.574798 0.586252,8.18302 -1.399995,1.779013 -4.267157,2.599514 -6.449155,1.845567 z"
     id="path858" />
</svg>
